# File created by Blade
# Date/Time:  Tue Jan 27 18:50:05 2015
# Frame Rate: 120.000 fps
#------------------------------------------------------
:FULLY-SPECIFIED
:DEGREES
3116
root -2.929360 32.454332 -8.857205 26.090013 -11.278820 -6.989347
Spine 9.846485 7.157576 -7.981690
Head 10.436813 -7.850973 6.847581
LeftShoulder -8.199825 5.288098 17.633018
LeftArm 35.655732 -24.417617 -82.500090
LeftForeArm -23.767545 -0.000000 136.256849
LeftHand -20.153619 -0.000000 11.550546
LeftHandThumb1 -26.253704 0.000000 33.147579
RightShoulder 6.081348 30.341923 -16.362206
RightArm 47.319861 -47.161861 84.987078
RightForeArm -25.062328 -0.000000 46.908264
RightHand -11.176597 -0.000000 -14.699424
RightHandThumb1 -24.326973 -0.000000 -32.862282
LeftUpLeg -29.087866 -4.663535 4.769094
LeftLeg 15.076008 -0.000000 -0.000000
LeftFoot -19.456682 2.410367 -29.658065
LeftToeBase 10.143456 -0.000000 -0.000000
RightUpLeg -14.525004 -13.695222 -8.276775
RightLeg 82.791125 -0.000000 -0.000000
RightFoot -13.330197 -21.941972 10.200138
RightToeBase 11.754044 -0.000000 -0.000000
3117
root -2.967337 32.456260 -8.857584 26.211948 -10.895194 -6.891634
Spine 9.786263 7.138742 -7.973183
Head 10.435992 -7.847253 6.849803
LeftShoulder -8.215695 5.334017 17.632718
LeftArm 35.690531 -24.339473 -82.635112
LeftForeArm -23.705485 -0.000000 136.171846
LeftHand -20.054795 -0.000000 11.603441
LeftHandThumb1 -26.253704 0.000000 33.147579
RightShoulder 6.023956 30.271516 -16.268124
RightArm 47.164943 -47.084224 85.073171
RightForeArm -25.141735 -0.000000 47.049271
RightHand -10.904511 0.000000 -14.748884
RightHandThumb1 -24.326973 -0.000000 -32.862282
LeftUpLeg -29.243119 -4.847126 4.820855
LeftLeg 14.962052 -0.000000 -0.000000
LeftFoot -19.000041 2.764105 -28.686398
LeftToeBase 9.388248 -0.000000 -0.000000
RightUpLeg -14.155292 -13.537640 -8.401246
RightLeg 82.813101 -0.000000 -0.000000
RightFoot -13.177800 -21.918185 10.112891
RightToeBase 11.749436 -0.000000 -0.000000
3118
root -3.009016 32.457347 -8.851228 26.328163 -10.547662 -6.819843
Spine 9.707870 7.151355 -7.970617
Head 10.483412 -7.841641 6.837028
LeftShoulder -8.232979 5.376452 17.636599
LeftArm 35.722299 -24.288662 -82.778791
LeftForeArm -23.769134 -0.000000 136.090186
LeftHand -20.059040 0.000000 11.603882
LeftHandThumb1 -26.253704 0.000000 33.147579
RightShoulder 6.015259 30.060983 -16.149127
RightArm 47.124282 -46.954914 85.134219
RightForeArm -25.619425 -0.000000 47.131516
RightHand -11.000783 -0.000000 -14.902711
RightHandThumb1 -24.326973 -0.000000 -32.862282
LeftUpLeg -29.376893 -5.012729 4.876272
LeftLeg 14.860386 -0.000000 -0.000000
LeftFoot -18.533508 3.207910 -27.540174
LeftToeBase 8.157409 -0.000000 -0.000000
RightUpLeg -13.744078 -13.410554 -8.529204
RightLeg 82.766991 -0.000000 -0.000000
RightFoot -13.078218 -21.835022 10.016003
RightToeBase 11.968471 -0.000000 -0.000000
3119
root -3.052046 32.457510 -8.842653 26.360023 -10.190508 -6.768954
Spine 9.748825 7.164820 -7.916966
Head 10.525986 -7.673376 6.880075
LeftShoulder -8.236672 5.377036 17.648886
LeftArm 35.724847 -24.223735 -82.919159
LeftForeArm -23.749547 -0.000000 136.005449
LeftHand -19.996523 -0.000000 11.859867
LeftHandThumb1 -26.253704 0.000000 33.147579
RightShoulder 6.028393 30.009272 -15.994097
RightArm 46.919880 -46.836574 85.267244
RightForeArm -25.937192 -0.000000 47.277065
RightHand -10.935979 -0.000000 -14.720445
RightHandThumb1 -24.326973 -0.000000 -32.862282
LeftUpLeg -29.437349 -5.225757 4.959141
LeftLeg 14.790848 -0.000000 -0.000000
LeftFoot -18.191915 3.618939 -26.588619
LeftToeBase 7.523230 -0.000000 -0.000000
RightUpLeg -13.246711 -13.225113 -8.616113
RightLeg 82.677543 -0.000000 -0.000000
RightFoot -12.887203 -21.916312 9.847159
RightToeBase 11.800343 -0.000000 -0.000000
3120
root -3.071669 32.458484 -8.868247 26.643325 -9.500894 -6.707867
Spine 9.618967 6.769719 -7.582758
Head 10.534507 -7.652421 6.541346
LeftShoulder -8.180482 5.227766 17.657458
LeftArm 35.504453 -24.269388 -83.148677
LeftForeArm -23.533977 -0.000000 135.985806
LeftHand -20.157907 0.000000 12.073332
LeftHandThumb1 -26.253704 0.000000 33.147579
RightShoulder 6.090489 29.828027 -16.120126
RightArm 46.892022 -46.600952 85.346880
RightForeArm -26.273365 0.000000 47.473799
RightHand -11.168204 -0.000000 -15.025371
RightHandThumb1 -24.326973 -0.000000 -32.862282
LeftUpLeg -29.996911 -5.922158 5.277001
LeftLeg 14.927763 -0.000000 -0.000000
LeftFoot -17.886018 4.210370 -25.784955
LeftToeBase 7.289541 -0.000000 -0.000000
RightUpLeg -13.021394 -13.405104 -8.562768
RightLeg 82.630645 -0.000000 -0.000000
RightFoot -12.776579 -21.849849 9.883683
RightToeBase 11.825277 -0.000000 -0.000000
3121
root -3.104514 32.454553 -8.870231 26.811031 -9.084976 -6.640455
Spine 9.509781 6.588172 -7.466234
Head 10.632775 -7.517097 6.354889
LeftShoulder -7.978698 4.805214 17.906773
LeftArm 34.745964 -24.547601 -83.278009
LeftForeArm -23.761637 0.000000 136.046235
LeftHand -20.095388 -0.000000 12.370217
LeftHandThumb1 -26.253704 0.000000 33.147579
RightShoulder 6.254261 29.887869 -16.045686
RightArm 46.579372 -46.467858 85.561558
RightForeArm -26.521176 -0.000000 47.698735
RightHand -11.233898 0.000000 -14.813873
RightHandThumb1 -24.326973 -0.000000 -32.862282
LeftUpLeg -30.308963 -6.353119 5.440431
LeftLeg 14.983381 -0.000000 -0.000000
LeftFoot -17.646020 4.729362 -24.929585
LeftToeBase 7.459368 -0.000000 -0.000000
RightUpLeg -12.680337 -13.351443 -8.644804
RightLeg 82.548091 -0.000000 -0.000000
RightFoot -12.523416 -21.855472 9.612699
RightToeBase 11.830460 -0.000000 -0.000000
3122
root -3.147568 32.451339 -8.868003 26.934917 -8.696213 -6.658136
Spine 9.427123 6.540148 -7.310338
Head 10.798917 -7.445124 6.279011
LeftShoulder -7.941672 4.826588 17.977353
LeftArm 34.752689 -24.586548 -83.518120
LeftForeArm -23.956479 -0.000000 135.934326
LeftHand -20.147163 -0.000000 12.284034
LeftHandThumb1 -26.253704 0.000000 33.147579
RightShoulder 6.334381 29.805197 -15.933530
RightArm 46.475088 -46.350189 85.574803
RightForeArm -26.826665 -0.000000 47.897922
RightHand -11.458156 -0.000000 -15.095331
RightHandThumb1 -24.326973 -0.000000 -32.862282
LeftUpLeg -30.586644 -6.664921 5.638173
LeftLeg 15.133355 -0.000000 -0.000000
LeftFoot -17.463365 5.297179 -23.929307
LeftToeBase 7.632586 -0.000000 -0.000000
RightUpLeg -12.294388 -13.242509 -8.632205
RightLeg 82.424558 -0.000000 -0.000000
RightFoot -12.292789 -21.877480 9.530553
RightToeBase 11.741862 -0.000000 -0.000000
3123
root -3.181131 32.446147 -8.864002 27.040281 -8.357496 -6.615396
Spine 9.347647 6.476784 -7.212542
Head 10.991758 -7.321628 6.174118
LeftShoulder -7.942904 4.944323 18.000134
LeftArm 34.890834 -24.610705 -83.722276
LeftForeArm -24.222393 -0.000000 135.796953
LeftHand -20.123732 -0.000000 12.488545
LeftHandThumb1 -26.253704 0.000000 33.147579
RightShoulder 6.430266 29.633749 -15.864603
RightArm 46.452295 -46.177378 85.554724
RightForeArm -27.087346 -0.000000 48.136811
RightHand -11.749514 0.000000 -14.933493
RightHandThumb1 -24.326973 -0.000000 -32.862282
LeftUpLeg -30.824054 -7.211403 5.866234
LeftLeg 15.209468 -0.000000 -0.000000
LeftFoot -17.378235 5.986603 -23.220863
LeftToeBase 7.501918 -0.000000 -0.000000
RightUpLeg -11.910060 -13.165348 -8.728484
RightLeg 82.307312 -0.000000 -0.000000
RightFoot -11.921732 -21.918612 9.147808
RightToeBase 11.753114 -0.000000 -0.000000
3124
root -3.211098 32.439266 -8.858279 27.121794 -8.068732 -6.571723
Spine 9.269781 6.490511 -7.136167
Head 11.227403 -7.270548 6.132703
LeftShoulder -7.886334 4.925022 18.100058
LeftArm 34.913397 -24.642477 -83.927938
LeftForeArm -24.201736 -0.000000 135.618911
LeftHand -20.180166 0.000000 12.537519
LeftHandThumb1 -26.253704 0.000000 33.147579
RightShoulder 6.449907 29.499772 -15.790293
RightArm 46.330876 -46.023125 85.611393
RightForeArm -27.396801 -0.000000 48.392572
RightHand -12.215087 -0.000000 -15.409893
RightHandThumb1 -24.326973 -0.000000 -32.862282
LeftUpLeg -31.027388 -7.846140 6.115762
LeftLeg 15.286780 -0.000000 -0.000000
LeftFoot -17.465776 6.692432 -22.771552
LeftToeBase 7.705468 -0.000000 -0.000000
RightUpLeg -11.530129 -13.103580 -8.850507
RightLeg 82.186313 -0.000000 -0.000000
RightFoot -11.578558 -22.054975 8.830854
RightToeBase 11.824603 -0.000000 -0.000000
3125
root -3.242668 32.430160 -8.850747 27.189011 -7.795103 -6.568950
Spine 9.201274 6.566518 -7.062459
Head 11.442094 -7.261502 6.265735
LeftShoulder -7.781572 4.798778 18.314053
LeftArm 34.822384 -24.612436 -84.094926
LeftForeArm -24.342421 0.000000 135.506118
LeftHand -20.257513 -0.000000 12.058820
LeftHandThumb1 -26.253704 0.000000 33.147579
RightShoulder 6.343339 29.340722 -15.507530
RightArm 47.459301 -46.653521 83.342355
RightForeArm -26.187455 -0.000000 49.330202
RightHand -13.015388 0.000000 -16.234242
RightHandThumb1 -24.326973 -0.000000 -32.862282
LeftUpLeg -31.232309 -8.563365 6.449705
LeftLeg 15.427651 -0.000000 -0.000000
LeftFoot -17.629559 7.516855 -22.266466
LeftToeBase 7.629924 -0.000000 -0.000000
RightUpLeg -11.147400 -13.028245 -8.953970
RightLeg 82.069966 -0.000000 -0.000000
RightFoot -11.162841 -22.138497 8.491685
RightToeBase 11.603945 -0.000000 -0.000000
3126
root -3.274146 32.419577 -8.838901 27.221564 -7.585237 -6.570123
Spine 9.142751 6.553728 -6.978078
Head 11.724978 -7.120341 6.228562
LeftShoulder -7.748751 4.835406 18.398768
LeftArm 34.899756 -24.791889 -84.224877
LeftForeArm -24.744134 0.000000 135.354206
LeftHand -20.301881 -0.000000 11.742740
LeftHandThumb1 -26.253704 0.000000 33.147579
RightShoulder 6.383727 29.245042 -15.433771
RightArm 47.058532 -46.427768 83.769409
RightForeArm -26.641941 -0.000000 49.645373
RightHand -13.167882 -0.000000 -15.833160
RightHandThumb1 -24.326973 -0.000000 -32.862282
LeftUpLeg -31.395301 -9.349949 6.806158
LeftLeg 15.585975 -0.000000 -0.000000
LeftFoot -17.903036 8.471093 -21.865408
LeftToeBase 7.481231 -0.000000 -0.000000
RightUpLeg -10.763156 -12.969790 -9.086586
RightLeg 81.960109 -0.000000 -0.000000
RightFoot -10.806696 -22.300339 8.273820
RightToeBase 11.758216 -0.000000 -0.000000
3127
root -3.303605 32.408316 -8.823848 27.232747 -7.440412 -6.582891
Spine 9.092493 6.580003 -6.921490
Head 11.987883 -7.028229 6.276160
LeftShoulder -7.695185 4.767837 18.520945
LeftArm 34.848211 -24.914809 -84.215653
LeftForeArm -25.009155 0.000000 135.234980
LeftHand -20.186468 -0.000000 11.432759
LeftHandThumb1 -26.253704 0.000000 33.147579
RightShoulder 6.365174 29.079229 -15.368240
RightArm 46.697501 -46.210778 84.175737
RightForeArm -27.175259 -0.000000 50.020329
RightHand -13.354850 -0.000000 -15.333663
RightHandThumb1 -24.326973 -0.000000 -32.862282
LeftUpLeg -31.537157 -10.031476 7.109977
LeftLeg 15.792228 -0.000000 -0.000000
LeftFoot -18.200985 9.353849 -21.562235
LeftToeBase 7.296760 -0.000000 -0.000000
RightUpLeg -10.383309 -12.903585 -9.263843
RightLeg 81.850520 -0.000000 -0.000000
RightFoot -10.371139 -22.425190 7.918319
RightToeBase 11.548509 -0.000000 -0.000000
3128
root -3.332466 32.396003 -8.804247 27.213998 -7.343391 -6.609445
Spine 9.065645 6.629964 -6.885373
Head 12.216080 -6.902020 6.372733
LeftShoulder -7.678711 4.747218 18.637248
LeftArm 34.877826 -24.992214 -84.163634
LeftForeArm -25.195391 0.000000 135.117414
LeftHand -20.061242 -0.000000 11.298107
LeftHandThumb1 -26.253704 0.000000 33.147579
RightShoulder 6.295653 28.900821 -15.289908
RightArm 46.359758 -46.055635 84.535622
RightForeArm -27.603278 0.000000 50.464907
RightHand -13.665577 -0.000000 -15.029104
RightHandThumb1 -24.326973 -0.000000 -32.862282
LeftUpLeg -31.654667 -10.686331 7.425949
LeftLeg 16.061390 -0.000000 -0.000000
LeftFoot -18.568256 10.098500 -21.415960
LeftToeBase 7.270937 -0.000000 -0.000000
RightUpLeg -9.994574 -12.806992 -9.451481
RightLeg 81.727663 -0.000000 -0.000000
RightFoot -9.889362 -22.536807 7.554159
RightToeBase 11.452165 -0.000000 -0.000000
